<svg width="48" height="48" viewBox="0 0 48 48" fill="none" xmlns="http://www.w3.org/2000/svg">
<circle cx="24" cy="24" r="24" fill="#009CC0"/>
<path d="M16.9849 19.1963C18.1933 19.1963 19.1729 18.2167 19.1729 17.0083C19.1729 15.7999 18.1933 14.8203 16.9849 14.8203C15.7765 14.8203 14.7969 15.7999 14.7969 17.0083C14.7969 18.2167 15.7765 19.1963 16.9849 19.1963Z" fill="white"/>
<path d="M21.2358 20.8547V32.9937H25.0047V26.9907C25.0047 25.4067 25.3027 23.8727 27.2667 23.8727C29.2037 23.8727 29.2277 25.6837 29.2277 27.0907V32.9947H32.9988V26.3377C32.9988 23.0677 32.2948 20.5547 28.4728 20.5547C26.6378 20.5547 25.4077 21.5617 24.9047 22.5147H24.8537V20.8547H21.2358V20.8547ZM15.0938 20.8547H18.8687V32.9937H15.0938V20.8547Z" fill="white"/>
</svg>
