<svg width="148" height="29" viewBox="0 0 148 29" fill="none" xmlns="http://www.w3.org/2000/svg">
<path d="M84.9413 28.4414C83.4233 28.4414 82.0981 28.1953 80.9656 27.7031C79.8572 27.1875 78.9416 26.5078 78.2188 25.6641C77.4959 24.8203 76.9538 23.8359 76.5924 22.7109C76.2309 21.5859 76.0502 20.3906 76.0502 19.125C76.0502 16.5938 76.4357 14.3086 77.2068 12.2695C78.0019 10.207 79.0259 8.39062 80.2789 6.82031C81.5318 5.22656 82.9173 3.86719 84.4353 2.74219C85.9773 1.59375 87.4953 0.679688 88.9892 0L90.0373 1.37109C87.917 3.31641 86.2303 5.05078 84.9774 6.57422C83.7245 8.07422 83.098 9.32812 83.098 10.3359C83.098 10.9453 83.363 11.4375 83.8931 11.8125C84.4232 12.1875 85.0738 12.5273 85.8448 12.832C86.5918 13.1133 87.3749 13.4297 88.1941 13.7812C89.0133 14.1328 89.7603 14.6016 90.4349 15.1875C91.1337 15.75 91.6999 16.4648 92.1336 17.332C92.5914 18.1992 92.8203 19.3008 92.8203 20.6367C92.8203 21.4336 92.6516 22.2891 92.3143 23.2031C92.0011 24.1172 91.5071 24.9609 90.8325 25.7344C90.1819 26.5078 89.3627 27.1523 88.3748 27.668C87.3869 28.1836 86.2424 28.4414 84.9413 28.4414ZM65.0629 28.4414C63.5449 28.4414 62.2197 28.1953 61.0872 27.7031C59.9789 27.1875 59.0633 26.5078 58.3404 25.6641C57.6176 24.8203 57.0754 23.8359 56.714 22.7109C56.3526 21.5859 56.1719 20.3906 56.1719 19.125C56.1719 16.5938 56.5574 14.3086 57.3284 12.2695C58.1236 10.207 59.1476 8.39062 60.4005 6.82031C61.6535 5.22656 63.0389 3.86719 64.5569 2.74219C66.099 1.59375 67.617 0.679688 69.1109 0L70.159 1.37109C68.0386 3.31641 66.352 5.05078 65.0991 6.57422C63.8461 8.07422 63.2197 9.32812 63.2197 10.3359C63.2197 10.9453 63.4847 11.4375 64.0148 11.8125C64.5449 12.1875 65.1954 12.5273 65.9665 12.832C66.7134 13.1133 67.4965 13.4297 68.3157 13.7812C69.135 14.1328 69.8819 14.6016 70.5566 15.1875C71.2553 15.75 71.8216 16.4648 72.2553 17.332C72.7131 18.1992 72.942 19.3008 72.942 20.6367C72.942 21.4336 72.7733 22.2891 72.436 23.2031C72.1227 24.1172 71.6288 24.9609 70.9541 25.7344C70.3036 26.5078 69.4843 27.1523 68.4964 27.668C67.5086 28.1836 66.364 28.4414 65.0629 28.4414Z" fill="white"/>
<rect y="14.2773" width="32" height="1" fill="white"/>
<rect x="116" y="14.2773" width="32" height="1" fill="white"/>
</svg>
