<svg width="100" height="64" viewBox="0 0 100 64" fill="none" xmlns="http://www.w3.org/2000/svg">
<path d="M15.9117 28.1017L17.5532 16.5945H17.7404L22.3912 26.0437L26.9989 16.5945H27.186L28.8275 28.1017H27.7044L26.5813 19.8698L22.5352 28.1017H22.2472L18.158 19.8119L17.0349 28.1017H15.9117Z" fill="#662483"/>
<path d="M29.5754 19.5938H30.7273L33.6359 26.1445L36.4581 19.5938H37.61L32.5704 31.2169H31.4185L33.0456 27.4633L29.5754 19.5938Z" fill="#662483"/>
<path d="M38.704 16.5945H41.0078C42.2605 16.5945 43.1532 16.7104 43.7148 16.9423C44.2619 17.1742 44.7083 17.551 45.0251 18.0727C45.3419 18.5945 45.5002 19.2177 45.5002 19.9423C45.5002 20.7394 45.2987 21.4206 44.8811 21.9423C44.4635 22.4785 43.902 22.8409 43.182 23.0582C42.7645 23.1742 42.0013 23.2322 40.8926 23.2322V28.1017H38.7184V16.5945H38.704ZM40.8782 21.1017H41.5694C42.1165 21.1017 42.4909 21.0582 42.7069 20.9858C42.9228 20.9133 43.0812 20.7829 43.2108 20.5945C43.326 20.4206 43.398 20.1887 43.398 19.9423C43.398 19.493 43.2252 19.1742 42.8796 18.9713C42.6349 18.8264 42.1741 18.7394 41.4974 18.7394H40.8782V21.1017Z" fill="#662483"/>
<path d="M46.494 19.5941H48.3083V20.6666C48.5099 20.2463 48.769 19.9274 49.1002 19.71C49.4314 19.4927 49.7914 19.3767 50.1801 19.3767C50.4537 19.3767 50.7417 19.4492 51.0441 19.5941L50.3817 21.4347C50.1369 21.3042 49.9209 21.2463 49.7626 21.2463C49.4314 21.2463 49.1578 21.4492 48.9274 21.855C48.697 22.2608 48.5963 23.0579 48.5963 24.2463L48.6107 24.6666V28.1158H46.5084V19.5941H46.494Z" fill="#662483"/>
<path d="M55.6657 19.3767C56.4576 19.3767 57.2208 19.5796 57.9119 19.9854C58.6175 20.3912 59.1646 20.9274 59.5534 21.6231C59.9422 22.3187 60.1437 23.0579 60.1437 23.855C60.1437 24.6521 59.9422 25.4057 59.5534 26.1158C59.1502 26.8115 58.6175 27.3622 57.9263 27.7535C57.2352 28.1448 56.4864 28.3477 55.6657 28.3477C54.4562 28.3477 53.4195 27.9129 52.5555 27.0434C51.6916 26.1738 51.274 25.1158 51.274 23.884C51.274 22.5506 51.7636 21.4492 52.7283 20.5651C53.5779 19.7535 54.557 19.3767 55.6657 19.3767ZM55.6945 21.3767C55.0321 21.3767 54.485 21.6086 54.053 22.0724C53.6211 22.5361 53.3907 23.1303 53.3907 23.8405C53.3907 24.5796 53.6067 25.1883 54.0386 25.6376C54.4706 26.1013 55.0177 26.3332 55.6801 26.3332C56.3424 26.3332 56.904 26.1013 57.336 25.6376C57.7823 25.1738 57.9983 24.5796 57.9983 23.8405C57.9983 23.1158 57.7823 22.5216 57.3504 22.0579C56.9328 21.6086 56.3712 21.3767 55.6945 21.3767Z" fill="#662483"/>
<path d="M63.5854 19.5941V20.5361C63.9742 20.1448 64.3773 19.855 64.8237 19.6666C65.2701 19.4782 65.7452 19.3767 66.2492 19.3767C67.3579 19.3767 68.2939 19.797 69.057 20.6376C69.8346 21.4782 70.2089 22.5506 70.2089 23.8695C70.2089 25.1303 69.8057 26.2028 69.0138 27.0434C68.2219 27.8984 67.2715 28.3187 66.1772 28.3187C65.6877 28.3187 65.2413 28.2318 64.8237 28.0579C64.4061 27.884 63.9886 27.5941 63.571 27.2028V31.2173H61.4832V19.5941H63.5854ZM65.8172 21.3477C65.1549 21.3477 64.5933 21.5796 64.147 22.0434C63.7006 22.5071 63.4846 23.1013 63.4846 23.8405C63.4846 24.5941 63.7006 25.2028 64.147 25.6811C64.5933 26.1448 65.1405 26.3767 65.8172 26.3767C66.4652 26.3767 67.0124 26.1448 67.4587 25.6666C67.9051 25.1883 68.1211 24.5796 68.1211 23.855C68.1211 23.1303 67.9051 22.5216 67.4731 22.0579C67.0412 21.5796 66.4796 21.3477 65.8172 21.3477Z" fill="#662483"/>
<path d="M75.5651 19.3767C76.357 19.3767 77.1202 19.5796 77.8113 19.9854C78.5169 20.3912 79.064 20.9274 79.4528 21.6231C79.8416 22.3187 80.0432 23.0579 80.0432 23.855C80.0432 24.6521 79.8416 25.4057 79.4528 26.1158C79.0496 26.8115 78.5169 27.3622 77.8257 27.7535C77.1346 28.1448 76.3858 28.3477 75.5651 28.3477C74.3556 28.3477 73.3189 27.9129 72.455 27.0434C71.591 26.1738 71.1735 25.1158 71.1735 23.884C71.1735 22.5506 71.663 21.4492 72.6277 20.5651C73.4917 19.7535 74.4708 19.3767 75.5651 19.3767ZM75.6083 21.3767C74.946 21.3767 74.3988 21.6086 73.9668 22.0724C73.5349 22.5361 73.3045 23.1303 73.3045 23.8405C73.3045 24.5796 73.5205 25.1883 73.9524 25.6376C74.3844 26.1013 74.9316 26.3332 75.5939 26.3332C76.2563 26.3332 76.8178 26.1013 77.2498 25.6376C77.6961 25.1738 77.9121 24.5796 77.9121 23.8405C77.9121 23.1158 77.6961 22.5216 77.2642 22.0579C76.8322 21.6086 76.2851 21.3767 75.6083 21.3767Z" fill="#662483"/>
<path d="M86.5655 20.7828L85.2552 22.1017C84.7225 21.5654 84.2329 21.3046 83.801 21.3046C83.5562 21.3046 83.369 21.3625 83.2394 21.464C83.1098 21.5654 83.0378 21.6959 83.0378 21.8408C83.0378 21.9567 83.081 22.0582 83.1674 22.1596C83.2538 22.2611 83.4698 22.3915 83.801 22.5509L84.5785 22.9422C85.3992 23.348 85.9608 23.7683 86.2632 24.1886C86.5655 24.6089 86.7239 25.1017 86.7239 25.6814C86.7239 26.435 86.4503 27.0727 85.8888 27.5799C85.3416 28.0872 84.5929 28.3335 83.6714 28.3335C82.4331 28.3335 81.4539 27.8553 80.7196 26.8843L82.0299 25.4495C82.2747 25.7393 82.5771 25.9712 82.9082 26.1596C83.2394 26.3335 83.5418 26.435 83.801 26.435C84.0745 26.435 84.3049 26.3625 84.4777 26.2321C84.6505 26.1017 84.7369 25.9422 84.7369 25.7683C84.7369 25.435 84.4345 25.1162 83.8154 24.8118L83.0954 24.4495C81.7275 23.7538 81.0364 22.8843 81.0364 21.8408C81.0364 21.1741 81.2956 20.5944 81.8139 20.1162C82.3323 19.6379 82.9946 19.406 83.7866 19.406C84.3337 19.406 84.8521 19.5219 85.3416 19.7683C85.8168 19.9857 86.2344 20.3335 86.5655 20.7828Z" fill="#662483"/>
<path d="M94.2408 19.5941H96.3574V28.1013H94.2408V27.2028C93.8232 27.5941 93.4056 27.884 92.9881 28.0579C92.5705 28.2318 92.1241 28.3187 91.6346 28.3187C90.5403 28.3187 89.6043 27.8985 88.798 27.0434C88.0061 26.1883 87.6029 25.1303 87.6029 23.8695C87.6029 22.5506 87.9917 21.4782 88.7548 20.6376C89.5324 19.797 90.4683 19.3767 91.5626 19.3767C92.0665 19.3767 92.5417 19.4782 92.9881 19.6666C93.4344 19.855 93.852 20.1448 94.2264 20.5361V19.5941H94.2408ZM92.009 21.3477C91.3466 21.3477 90.8138 21.5796 90.3675 22.0434C89.9355 22.5071 89.7195 23.1158 89.7195 23.8405C89.7195 24.5796 89.9355 25.1883 90.3819 25.6521C90.8282 26.1303 91.361 26.3622 92.009 26.3622C92.6713 26.3622 93.2329 26.1303 93.6648 25.6666C94.0968 25.2028 94.3272 24.5941 94.3272 23.826C94.3272 23.0869 94.1112 22.4782 93.6648 22.0289C93.2329 21.5796 92.6857 21.3477 92.009 21.3477Z" fill="#662483"/>
<path d="M97.8832 16.3044H99.9998V28.1015H97.8832V16.3044Z" fill="#662483"/>
<path d="M26.8539 33.7105L25.3276 35.1743C24.2909 34.0728 23.1246 33.5221 21.8287 33.5221C20.7343 33.5221 19.8128 33.8989 19.0641 34.6525C18.3153 35.4062 17.941 36.3337 17.941 37.4351C17.941 38.2032 18.1137 38.8844 18.4449 39.4786C18.7761 40.0728 19.2513 40.5366 19.856 40.8844C20.4608 41.2177 21.1375 41.3916 21.8719 41.3916C22.5054 41.3916 23.0814 41.2757 23.5997 41.0293C24.1181 40.7974 24.694 40.3627 25.3276 39.7395L26.7963 41.2902C25.9467 42.1163 25.1548 42.696 24.4061 43.0148C23.6573 43.3337 22.7934 43.4931 21.8287 43.4931C20.0576 43.4931 18.5889 42.9279 17.4658 41.7974C16.3283 40.667 15.7667 39.2032 15.7667 37.4351C15.7667 36.2902 16.0259 35.2612 16.5443 34.3772C17.0626 33.4786 17.797 32.7685 18.7617 32.2322C19.7264 31.696 20.7631 31.4207 21.8719 31.4207C22.8222 31.4207 23.7293 31.6236 24.5932 32.0293C25.4572 32.4351 26.2203 32.9714 26.8539 33.7105Z" fill="#009CC0"/>
<path d="M32.0951 34.4644C32.8871 34.4644 33.6502 34.6673 34.3414 35.0731C35.0469 35.4788 35.5941 36.0151 35.9828 36.7107C36.3716 37.4064 36.5732 38.1455 36.5732 38.9426C36.5732 39.7397 36.3716 40.4933 35.9828 41.2035C35.5797 41.8991 35.0469 42.4499 34.3558 42.8412C33.6646 43.2325 32.9159 43.4354 32.0951 43.4354C30.8856 43.4354 29.8489 43.0006 28.985 42.131C28.1211 41.2615 27.7035 40.2035 27.7035 38.9716C27.7035 37.6383 28.1931 36.5368 29.1578 35.6528C30.0217 34.8557 30.9864 34.4644 32.0951 34.4644ZM32.1239 36.4788C31.4616 36.4788 30.9144 36.7107 30.4825 37.1745C30.0505 37.6383 29.8201 38.2325 29.8201 38.9426C29.8201 39.6817 30.0361 40.2904 30.4681 40.7397C30.9 41.2035 31.4472 41.4354 32.1095 41.4354C32.7719 41.4354 33.3334 41.2035 33.7654 40.7397C34.2118 40.2759 34.4278 39.6817 34.4278 38.9426C34.4278 38.218 34.2118 37.6238 33.7798 37.16C33.3622 36.7107 32.8007 36.4788 32.1239 36.4788Z" fill="#009CC0"/>
<path d="M44.1611 34.6959H46.2777V43.2031H44.1611V42.3046C43.7435 42.6959 43.3259 42.9857 42.9084 43.1596C42.4908 43.3336 42.0444 43.4205 41.5549 43.4205C40.4606 43.4205 39.5246 43.0002 38.7183 42.1452C37.912 41.2901 37.5232 40.2321 37.5232 38.9713C37.5232 37.6524 37.912 36.58 38.6751 35.7394C39.4526 34.8988 40.3886 34.4785 41.4829 34.4785C41.9868 34.4785 42.462 34.58 42.9084 34.7684C43.3547 34.9568 43.7723 35.2466 44.1467 35.6379V34.6959H44.1611ZM41.9292 36.4495C41.2669 36.4495 40.7341 36.6814 40.2878 37.1452C39.8558 37.6089 39.6398 38.2176 39.6398 38.9423C39.6398 39.6814 39.8558 40.2901 40.3022 40.7539C40.7485 41.2321 41.2813 41.464 41.9292 41.464C42.5916 41.464 43.1531 41.2321 43.5851 40.7683C44.0171 40.3046 44.2475 39.6959 44.2475 38.9278C44.2475 38.1886 44.0315 37.58 43.5851 37.1307C43.1531 36.6669 42.606 36.4495 41.9292 36.4495Z" fill="#009CC0"/>
<path d="M56.3138 36.4055L54.5428 37.3765C54.2116 37.0287 53.8804 36.7823 53.5637 36.6519C53.2325 36.5214 52.8581 36.449 52.4262 36.449C51.6342 36.449 50.9863 36.6809 50.4967 37.1591C50.0071 37.6374 49.7624 38.2461 49.7624 38.9852C49.7624 39.7098 49.9927 40.304 50.4679 40.7533C50.9431 41.2171 51.5622 41.4345 52.3254 41.4345C53.2757 41.4345 54.01 41.1156 54.5428 40.4635L56.213 41.6229C55.3059 42.8113 54.0244 43.4055 52.3686 43.4055C50.8855 43.4055 49.7192 42.9562 48.8696 42.0721C48.0201 41.1881 47.6025 40.1446 47.6025 38.9562C47.6025 38.1301 47.8041 37.3765 48.2217 36.6809C48.6249 35.9852 49.2008 35.449 49.9351 35.0432C50.6695 34.6374 51.4902 34.449 52.3974 34.449C53.2325 34.449 53.9956 34.6229 54.658 34.9562C55.3347 35.3185 55.8819 35.7968 56.3138 36.4055Z" fill="#009CC0"/>
<path d="M57.8256 31.4058H59.9278V35.5507C60.3454 35.1884 60.7629 34.9275 61.1805 34.7391C61.5981 34.5652 62.03 34.4637 62.462 34.4637C63.2971 34.4637 64.0027 34.7536 64.5786 35.3333C65.0682 35.8405 65.313 36.5797 65.313 37.5652V43.1883H63.2251V39.4492C63.2251 38.4637 63.1819 37.797 63.0811 37.4492C62.9948 37.1014 62.822 36.8405 62.606 36.6666C62.3756 36.4927 62.102 36.4057 61.7709 36.4057C61.3389 36.4057 60.9645 36.5507 60.6621 36.8405C60.3598 37.1304 60.1438 37.5217 60.0142 38.0144C59.9566 38.2753 59.9278 38.855 59.9278 39.7681V43.1883H57.8256V31.4058Z" fill="#009CC0"/>
<path d="M10.3528 20.2609H0L14.3844 0H24.7228L10.3528 20.2609Z" fill="#009CC0"/>
<path d="M68.956 64.0005H58.6033L74.442 42.073H84.4924L68.956 64.0005Z" fill="#009CC0"/>
<path d="M24.0172 13.6957H34.37L24.7516 0H14.3988L24.0172 13.6957Z" fill="#662483"/>
<path d="M58.6035 63.9995H68.9562L57.5668 47.8545H47.214L58.6035 63.9995Z" fill="#662483"/>
<path d="M69.7623 42.0723H89.4455L85.3275 33.71L69.7623 42.0723Z" fill="#009CC0"/>
<path d="M65.155 31.4778H66.5805V31.9705H66.1054V34.0865H65.6014V31.9705H65.1406V31.4778H65.155Z" fill="#009CC0"/>
<path d="M67.0847 31.4778H67.5598L68.1646 33.2894L68.7693 31.4778H69.2444L69.6764 34.0865H69.2013L68.9277 32.4488L68.3805 34.0865H67.9486L67.4014 32.4488L67.1135 34.0865H66.6383L67.0847 31.4778Z" fill="#009CC0"/>
</svg>
