<svg width="48" height="48" viewBox="0 0 48 48" fill="none" xmlns="http://www.w3.org/2000/svg">
<circle cx="24" cy="24" r="24" fill="#009CC0"/>
<path d="M35 16.0003C34.0424 16.6758 32.9821 17.1924 31.86 17.5303C31.2577 16.8378 30.4573 16.347 29.567 16.1242C28.6767 15.9015 27.7395 15.9575 26.8821 16.2847C26.0247 16.612 25.2884 17.1947 24.773 17.954C24.2575 18.7133 23.9877 19.6126 24 20.5303V21.5303C22.2426 21.5759 20.5013 21.1861 18.931 20.3957C17.3607 19.6054 16.0103 18.4389 15 17.0003C15 17.0003 11 26.0003 20 30.0003C17.9405 31.3983 15.4872 32.0992 13 32.0003C22 37.0003 33 32.0003 33 20.5003C32.9991 20.2217 32.9723 19.9439 32.92 19.6703C33.9406 18.6638 34.6608 17.393 35 16.0003Z" fill="white"/>
</svg>
